<svg xmlns="http://www.w3.org/2000/svg" xml:space="preserve" width="512" height="512" viewBox="0 0 512 512"><path fill="#55d47b" d="m71.93 312.991 48.773 27.756c13.478 7.67 12.893 27.291-1.018 34.145l-4.772 2.351c7.714 12.039 19.277 21.441 32.914 26.375 12.998 4.703 20.687 18.452 16.796 31.716-4.183 14.259-19.384 21.935-33.229 17.081-26.637-9.34-48.934-28.196-62.806-52.347l-5.386 2.654c-13.911 6.854-29.825-4.638-27.694-19.999l7.711-55.586c1.878-13.539 16.831-20.907 28.711-14.146" data-original="#55d47b"/><path fill="#5ad6ff" d="m377.475 180.102-48.773-27.756c-13.478-7.67-12.893-27.291 1.018-34.145l4.772-2.351c-7.714-12.039-19.277-21.441-32.914-26.375-12.998-4.703-20.687-18.452-16.796-31.716 4.183-14.259 19.384-21.935 33.229-17.081 26.637 9.34 48.934 28.196 62.806 52.347l5.386-2.654c13.911-6.854 29.825 4.638 27.694 19.999l-7.711 55.586c-1.877 13.539-16.831 20.907-28.711 14.146" data-original="#5ad6ff"/><path fill="#d4d4ff" d="M112.059 7.5H51.882C37.588 7.5 26 19.088 26 33.382v207.059c0 14.294 11.588 25.882 25.882 25.882h60.176z" data-original="#d4d4ff"/><path fill="#efedff" d="M220.118 7.5H112.059c-14.294 0-25.882 11.588-25.882 25.882v207.059c0 14.294 11.588 25.882 25.882 25.882h52.39l2.435-.761A121.26 121.26 0 0 0 246 187.45V33.382C246 19.088 234.412 7.5 220.118 7.5" data-original="#efedff"/><path fill="#d4d4ff" d="M246 187.146a43.55 43.55 0 0 1-26.271 8.832h-9.625c-20.84 0-37.733 16.894-37.733 37.733v9.113a38.87 38.87 0 0 1-7.921 23.499c43.197-2.332 77.974-36.321 81.55-79.177" data-original="#d4d4ff"/><path fill="#7a8fa5" d="M286 269.5v60h40v-60c0-11.046 8.954-20 20-20s20 8.954 20 20v60h40v-60c0-33.137-26.863-60-60-60s-60 26.863-60 60" data-original="#7a8fa5"/><path fill="#5b778f" d="M326 229.5c0-11.046 8.954-20 20-20-33.137 0-60 26.863-60 60v60h40v-60c0-11.046 8.954-20 20-20-11.046 0-20-8.954-20-20" data-original="#5b778f"/><path fill="#af6d56" d="M290 389.764h-84V462.5c0 23.196 18.804 42 42 42h84z" data-original="#af6d56"/><path fill="#c8866a" d="M290 389.764V462.5c0 23.196 18.804 42 42 42h112c23.196 0 42-18.804 42-42v-72.736z" data-original="#c8866a"/><path fill="#c8866a" d="M332 294.5h-84c-23.196 0-42 18.804-42 42v53.264c22.867 13.735 51.67 24.108 84 29.739z" data-original="#c8866a"/><path fill="#db9e82" d="M444 294.5H332c-23.196 0-42 18.804-42 42v83.003c17.737 3.089 36.532 4.757 56 4.757 54.954 0 104.588-13.225 140-34.495V336.5c0-23.196-18.804-42-42-42" data-original="#db9e82"/><path fill="none" stroke="#000" stroke-linecap="round" stroke-linejoin="round" stroke-miterlimit="10" stroke-width="15" d="m71.93 312.991 48.773 27.756c13.478 7.67 12.893 27.291-1.018 34.145l-4.772 2.351c7.714 12.039 19.277 21.441 32.914 26.375 12.998 4.703 20.687 18.452 16.796 31.716-4.183 14.259-19.384 21.935-33.229 17.081-26.637-9.34-48.934-28.196-62.806-52.347l-5.386 2.654c-13.911 6.854-29.825-4.638-27.694-19.999l7.711-55.586c1.878-13.539 16.831-20.907 28.711-14.146m305.545-132.889-48.773-27.756c-13.478-7.67-12.893-27.291 1.018-34.145l4.772-2.351c-7.714-12.039-19.277-21.441-32.914-26.375-12.998-4.703-20.687-18.452-16.796-31.716 4.183-14.259 19.384-21.935 33.229-17.081 26.637 9.34 48.934 28.196 62.806 52.347l5.386-2.654c13.911-6.854 29.825 4.638 27.694 19.999l-7.711 55.586c-1.877 13.539-16.831 20.907-28.711 14.146M26 116.817v123.624c0 14.294 11.588 25.882 25.882 25.882h112.567M246 187.451V33.382C246 19.088 234.412 7.5 220.118 7.5H51.882C37.588 7.5 26 19.088 26 33.382v48.201" data-original="#000000" style="stroke-width:15;stroke-linecap:round;stroke-linejoin:round;stroke-miterlimit:10"/><path fill="none" stroke="#000" stroke-linecap="round" stroke-linejoin="round" stroke-miterlimit="10" stroke-width="15" d="M246 187.146a43.55 43.55 0 0 1-26.271 8.832h-9.625c-20.84 0-37.733 16.894-37.733 37.733v9.113a38.87 38.87 0 0 1-7.921 23.499c43.197-2.332 77.974-36.321 81.55-79.177m160 106.639V269.5c0-33.137-26.863-60-60-60h0c-33.137 0-60 26.863-60 60v24.45" data-original="#000000" style="stroke-width:15;stroke-linecap:round;stroke-linejoin:round;stroke-miterlimit:10"/><path fill="none" stroke="#000" stroke-linecap="round" stroke-linejoin="round" stroke-miterlimit="10" stroke-width="15" d="M326 293.785V269.5c0-11.046 8.954-20 20-20h0c11.046 0 20 8.954 20 20v24.285m78 .715H248c-23.196 0-42 18.804-42 42v126c0 23.196 18.804 42 42 42h196c23.196 0 42-18.804 42-42v-126c0-23.196-18.804-42-42-42m-161.594 57.498v12.221m127.188-12.221v12.221" data-original="#000000" style="stroke-width:15;stroke-linecap:round;stroke-linejoin:round;stroke-miterlimit:10"/><path fill="none" stroke="#000" stroke-linecap="round" stroke-linejoin="round" stroke-miterlimit="10" stroke-width="15" d="M329.234 363.855c4.077 4.678 10.074 7.638 16.766 7.638s12.69-2.96 16.766-7.638M81.5 130.992h109m-109 40h109M122.039 46.575a23.75 23.75 0 0 0-13.341-4.075c-13.178 0-23.861 10.683-23.861 23.861s10.683 23.861 23.861 23.861c5.352 0 9.755-1.762 13.096-4.738a19 19 0 0 0 1.937-1.998M153.23 42.5l16.316 47.006c.342.962 1.706.953 2.035-.014l15.582-46.904m215.998 376.719c31.35-5.585 59.333-15.642 81.747-28.892m-277.863-.028c22.697 13.426 51.115 23.57 82.955 29.116 17.737 3.089 36.532 4.756 56 4.756 7.566 0 15.032-.251 22.373-.739" data-original="#000000" style="stroke-width:15;stroke-linecap:round;stroke-linejoin:round;stroke-miterlimit:10"/></svg>