<svg xmlns="http://www.w3.org/2000/svg" version="1.1" xmlns:xlink="http://www.w3.org/1999/xlink" width="512" height="512" x="0" y="0" viewBox="0 0 512 512" style="enable-background:new 0 0 512 512" xml:space="preserve" class=""><g><circle cx="250.772" cy="249.19" r="241.237" style="" fill="#514bdb" data-original="#514bdb" class=""></circle><circle cx="241.761" cy="26.684" r="8.208" style="fill-rule:evenodd;clip-rule:evenodd;" transform="rotate(-22.5 241.75 26.684)" fill="#ffffff" data-original="#ffffff" class=""></circle><circle cx="355.593" cy="466.8" r="8.208" style="fill-rule:evenodd;clip-rule:evenodd;" fill="#b8cbfe" data-original="#b8cbfe" class=""></circle><path d="M313.752 448.788c2.954 2.314 6.114 4.079 8.754 7.238-4.392 4.757-5.889 7.891-12.008 10.245-4.34 1.669-8.967 1.785-13.507 1.737-5.729-.061-10.881-1.744-16.552 1.764-5.35 3.311-6.937 10.025-12.954 13.4-7.7 4.322-15.703 3.084-22.396 2.393-3.303-.344-5.98-1.302-10.304 1.295-3.007 1.805-4.86 5.328-7.496 8.188-6.647 7.193-14.748 10.917-24.263 8.005.467-3.411 1.952-6.444 2.703-9.742 13.69 1.264 14.645-13.913 27.964-18.55 9.761-3.402 20.085 3.038 28.195-1.632 3.034-1.742 5.005-5.774 6.932-7.926 2.382-2.66 5.071-5.399 8.705-7.036 9.434-4.251 21.228 1.525 29.902-3.09 2.888-1.535 3.779-3.852 6.325-6.289zM180.652 26.262l2.968 18.309-17.347-6.581-17.342-6.584 14.374-11.728 14.374-11.725z" style="fill-rule:evenodd;clip-rule:evenodd;" fill="#fe5d0d" data-original="#fe5d0d"></path><path d="M5.806 295.114h28.039v28.035H5.806z" style="fill-rule:evenodd;clip-rule:evenodd;" transform="rotate(-44.586 19.837 309.141)" fill="#b8cbfe" data-original="#b8cbfe" class=""></path><path d="M509.09 253.289c8.383 21.102-1.965 45.098-23.065 53.483-21.102 8.387-45.098-1.958-53.485-23.065-8.389-21.1 1.961-45.096 23.061-53.481 21.104-8.387 45.097 1.956 53.489 23.063zm-65.809 26.152c6.031 15.18 23.292 22.624 38.473 16.589 15.185-6.031 22.622-23.292 16.591-38.473-6.035-15.185-23.295-22.627-38.475-16.593-15.181 6.036-22.622 23.295-16.589 38.477z" style="" fill="#fec900" data-original="#fec900" class=""></path><path d="M333.531 123.038c-1.036-3.759-2.367-9.826-5.809-11.715-4.094-2.253-11.374-1.072-14.94-3.245-.973-.593-1.777-1.643-2.461-2.958l-10.148-44.719c-2.701-11.902-14.539-19.361-26.441-16.66L35.313 97.845c-11.902 2.701-19.361 14.539-16.66 26.441l75.683 333.509c2.701 11.902 14.539 19.361 26.441 16.66l238.419-54.105c11.902-2.701 19.361-14.539 16.66-26.441L329.42 189.282a7.164 7.164 0 0 1 1.592-6.321c.902-1.025 1.859-2.107 2.715-3.307 1.966-2.755 4.227-6.427 5.406-9.66 1.746-4.784.842-11.431-.083-17.624-1.576-10.556-2.872-19.734-5.519-29.332z" style="fill-rule:evenodd;clip-rule:evenodd;" fill="#fec900" data-original="#fec900" class=""></path><path d="M44.304 111.847c1.851-2.873 3.845-4.574 6.822-4.017 3.04.569 4.187 2.998 4.573 5.747.256 1.811.303 3.68.196 5.508-.417 7.118.033 14.192.69 21.275.241 2.598.179 5.263-.093 7.86-.326 3.12-1.882 5.51-5.263 6.033-3.279.506-5.665-1.041-7.112-3.841-1.076-2.084-2.152-4.298-2.561-6.574-1.748-9.722-1.37-19.389 1.52-28.887.382-1.249.962-2.437 1.228-3.104zM48.648 167.842c1.641-2.667 5.112-3.254 7.324-.921 2.81 2.963 4.125 6.689 3.539 10.764-.552 3.842-4.49 5.573-7.702 3.646-3.378-2.028-5.262-10.073-3.161-13.489zM364.826 379.893c.094 6.051-1.196 10.959-4.2 15.172-2.804 3.932-6.246 4.977-9.125 3.01-2.931-2.001-3.517-5.619-1.417-10.341 1.746-3.924 4.045-7.513 4.52-12.094.286-2.747 1.827-4.894 4.571-5.005 3.152-.128 4.483 2.352 5.16 5.31.342 1.497.389 3.074.491 3.948zM349.918 407.338c-.268 2.999-3.988 6.005-6.886 5.672-2.197-.252-3.364-1.708-3.186-4.164.218-3.006 3.869-5.891 6.788-5.448 2.137.324 3.31 1.671 3.284 3.94z" style="" fill="#ffffff" data-original="#ffffff" class=""></path><path d="m250.303 153.32 12.512 62.568c1.456 7.282-3.201 14.384-10.459 15.952l-110.099 23.777c-7.108 1.535-14.166-2.797-16.015-9.83l-15.887-60.424c-1.953-7.428 2.632-14.997 10.119-16.708l113.474-25.92c7.459-1.705 14.854 3.082 16.355 10.585z" style="fill-rule:evenodd;clip-rule:evenodd;" fill="#ffffff" data-original="#ffffff" class=""></path><path d="M235.351 168.23 129.67 192.212a4.118 4.118 0 1 1-1.823-8.033l105.681-23.982a4.118 4.118 0 1 1 1.823 8.033zM240.193 189.567l-105.681 23.982a4.118 4.118 0 1 1-1.823-8.033l105.681-23.982a4.118 4.118 0 1 1 1.823 8.033zM245.035 210.904l-105.681 23.982a4.118 4.118 0 1 1-1.823-8.033l105.681-23.982a4.118 4.118 0 1 1 1.823 8.033z" style="" fill="#1d1d1b" data-original="#1d1d1b" class=""></path><path d="M164.19 388.923c-1.645 10.182 5.274 19.769 15.455 21.413l233.365 37.693c10.18 1.644 19.769-5.276 21.414-15.458l48.777-327.32c1.645-10.184-5.277-19.771-15.458-21.416L234.377 46.142c-10.18-1.644-19.766 5.277-21.41 15.461l-48.777 327.32z" style="fill-rule:evenodd;clip-rule:evenodd;" fill="#b8cbfe" data-original="#b8cbfe" class=""></path><path d="M226.438 108.638a7.566 7.566 0 0 0 6.263 8.679l112.392 18.153a7.565 7.565 0 0 0 8.676-6.266 7.565 7.565 0 0 0-6.262-8.68l-112.392-18.153a7.567 7.567 0 0 0-8.677 6.267zM222.157 141.956a7.566 7.566 0 0 0 6.263 8.679l112.392 18.154a7.566 7.566 0 0 0 8.677-6.266 7.565 7.565 0 0 0-6.262-8.68l-112.392-18.154a7.568 7.568 0 0 0-8.678 6.267zM216.545 175.209a7.566 7.566 0 0 0 6.263 8.679l215.432 34.846a7.566 7.566 0 0 0 8.677-6.266 7.565 7.565 0 0 0-6.262-8.68l-215.432-34.846a7.568 7.568 0 0 0-8.678 6.267zM212.721 211.994a7.566 7.566 0 0 0 6.263 8.679l215.432 34.846a7.566 7.566 0 0 0 8.677-6.266 7.565 7.565 0 0 0-6.262-8.68l-215.432-34.846a7.567 7.567 0 0 0-8.678 6.267zM206.46 246.286a7.567 7.567 0 0 0 6.263 8.679l215.432 34.846a7.565 7.565 0 0 0 8.676-6.266 7.565 7.565 0 0 0-6.262-8.68l-215.432-34.846a7.567 7.567 0 0 0-8.677 6.267zM202.636 283.071a7.566 7.566 0 0 0 6.263 8.679l215.432 34.846a7.566 7.566 0 0 0 8.677-6.266 7.565 7.565 0 0 0-6.262-8.68l-215.432-34.846a7.568 7.568 0 0 0-8.678 6.267z" style="fill-rule:evenodd;clip-rule:evenodd;" fill="#ffffff" data-original="#ffffff" class=""></path><path d="M363.723 135.71c4.173-25.835 28.501-43.396 54.336-39.223 25.837 4.173 43.396 28.499 39.223 54.334a47.19 47.19 0 0 1-15.328 27.891l-72.198-11.254a47.191 47.191 0 0 1-6.033-31.748z" style="" fill="#514bdb" data-original="#514bdb" class=""></path><path d="M402.947 190.048c-14.422-2.329-26.261-10.944-33.185-22.593 2.968-1.914 6.733-2.864 11.561-3.449 5.632-.683 11.281-1.063 13.341-5.416 3.495-7.394-1.707-15.784-2.362-23.977-1.268-15.892 11.297-31.109 25.804-27.444 13.868 3.507 18.857 21.864 12.03 35.781-3.154 6.432-10.717 12.706-9.143 20.785 1.106 5.694 10.146 6.804 16.093 10.611 2.039 1.308 3.641 2.749 4.865 4.361-10.272 9.107-24.395 13.701-39.004 11.341z" style="" fill="#fe5d0d" data-original="#fe5d0d"></path><path d="M327.5 47.457a2.887 2.887 0 0 0-2.177.48 2.893 2.893 0 0 0-1.195 1.882L316.6 92.23a11.637 11.637 0 0 1-4.831 7.554 11.633 11.633 0 0 1-8.752 1.934 11.633 11.633 0 0 1-7.556-4.825 11.626 11.626 0 0 1-1.94-8.752l8.695-49.007c.775-4.361 4.971-7.277 9.316-6.511 4.363.778 7.283 4.958 6.507 9.319l-7.181 40.498a4.493 4.493 0 0 1-1.861 2.916 4.531 4.531 0 0 1-3.389.755 4.543 4.543 0 0 1-3.669-5.255l5.32-29.972a2.921 2.921 0 0 0-2.358-3.369 2.914 2.914 0 0 0-2.177.479 2.88 2.88 0 0 0-1.197 1.878L296.21 79.84c-.992 5.624 2.77 11.006 8.384 11.998a10.274 10.274 0 0 0 7.729-1.706 10.265 10.265 0 0 0 4.265-6.672l7.187-40.496a13.755 13.755 0 0 0-2.287-10.352 13.754 13.754 0 0 0-8.934-5.709 13.742 13.742 0 0 0-10.353 2.287 13.75 13.75 0 0 0-5.712 8.929l-8.689 49.01c-1.688 9.517 4.683 18.635 14.2 20.325 1.033.183 2.059.271 3.072.271 8.338 0 15.756-5.985 17.266-14.475l7.52-42.422a2.915 2.915 0 0 0-2.358-3.371zM411.335 399.087c0-.002-.002-.002-.002-.002-4.548-2.347-8.536-2.844-12.38-1.439.091-4.603-1.148-9.716-7.226-11.672a7.23 7.23 0 0 0-.658-.168l-.012-.001a4.649 4.649 0 0 0-.9-.214c-.017-.003-.029-.015-.046-.019a11.335 11.335 0 0 0-3.223-.184c2.038-10.304.089-16.729-5.821-19.132-2.338-.949-4.771-.946-7.027.011-6.237 2.642-10 11.983-12.489 18.165-.481 1.196-.899 2.238-1.257 3.012l-.715 1.555c-2.937 6.4-5.971 13.02-11.073 17.194-1.557 1.276-2.27 1.23-2.26 1.242-.776-.336-2.224-4.09-2.059-11.241.449-19.57 12.389-40.734 31.939-56.616.806-.654 1.253-1.818 1.089-2.844-.213-1.319-1.232-2.36-2.948-3.012-2.151-.815-3.502-.257-4.249.352-19.228 15.617-31.288 35.968-33.957 57.304-.672 5.379-1.117 15.14 3.454 20.09 1.777 1.924 4.144 2.932 6.872 2.932.168 0 .338-.005.508-.011 12.122-.547 18.163-15.251 22.575-25.986.919-2.238 1.786-4.349 2.578-5.987 1.462-3.03 2.841-5.436 4.344-7.574.767-1.089 1.289-1.391 1.316-1.48.3.247 1.008 1.412 1.069 3.52.213 7.551-2.68 15.744-5.663 23.492-.533 1.393-.098 3.264 2.081 4.303 2.426 1.155 4.737.751 5.758-1.012.645-1.117 1.237-2.256 1.829-3.391 1.512-2.901 2.939-5.638 5.136-7.751a8.627 8.627 0 0 1 1.153-.954c.869 2.002.983 8.294.186 14.395-.077.574-.136 2.542 2.335 3.697.778.365 1.698.62 2.594.62.965 0 1.904-.295 2.615-1.067l.499-.545c3.965-4.333 6.087-6.037 9.832-4.099.699.356 4.532 1.602 5.942-1.121.488-.944.751-3.073-1.739-4.362zm-1.336 2.579zm-1.333 2.58 1.037-2.007h.007l-1.017 2.023-.027-.016z" style="" fill="#1d1d1b" data-original="#1d1d1b" class=""></path></g></svg>