<svg xmlns="http://www.w3.org/2000/svg" version="1.1" xmlns:xlink="http://www.w3.org/1999/xlink" width="512" height="512" x="0" y="0" viewBox="0 0 67 67" style="enable-background:new 0 0 512 512" xml:space="preserve" class=""><g><path fill="#ffffff" d="M35.71 24.757v30.415c0 1.42-1.149 2.568-2.568 2.568H7.905a2.568 2.568 0 0 1-2.569-2.568V24.757c0-1.42 1.15-2.569 2.569-2.569h25.237c1.42 0 2.569 1.15 2.569 2.569z" opacity="0" data-original="#ffffff" class=""></path><path fill="#ffffff" d="M29.284 21.536v3.636H11.766v-3.636A2.324 2.324 0 0 1 14.1 19.21h2.534a3.89 3.89 0 0 1 3.892-3.864 3.89 3.89 0 0 1 3.892 3.864h2.543a2.322 2.322 0 0 1 2.324 2.325z" opacity="0" data-original="#ffffff" class=""></path><path fill="#ffffff" d="M28.712 38.573v-2.51l-1.86-.41c-.15-.58-.38-1.12-.67-1.63l1.02-1.61-1.77-1.77-1.61 1.02c-.51-.29-1.05-.52-1.63-.67l-.41-1.86h-2.51l-.41 1.86c-.58.15-1.13.38-1.63.67l-1.61-1.02-1.78 1.77 1.03 1.61c-.3.51-.53 1.05-.68 1.63l-1.86.41v2.51l1.86.41c.15.59.38 1.13.68 1.63l-1.03 1.61 1.78 1.78 1.61-1.03c.5.3 1.05.52 1.63.67l.41 1.87h2.51l.41-1.87c.58-.15 1.12-.37 1.63-.67l1.61 1.03 1.77-1.78-1.02-1.61c.29-.5.52-1.05.67-1.63zm-8.19 2.53c-2.09 0-3.78-1.69-3.78-3.78s1.69-3.79 3.78-3.79 3.79 1.7 3.79 3.79-1.7 3.78-3.79 3.78z" opacity="1" data-original="#8f9fff" class=""></path><path fill="#ffffff" d="M63.594 16.46v13.404c0 1.11-.9 2-1.999 2h-20.71c-1.099 0-1.999-.89-1.999-2V16.461c0-1.1.9-2 2-2h20.71c1.099 0 1.998.9 1.998 2z" opacity="0" data-original="#ffffff" class=""></path><path fill="#ffffff" d="M63.594 16.381v2.958L51.24 24.147l-12.354-4.808v-2.958c0-1.06.86-1.92 1.92-1.92h20.859c1.07 0 1.93.86 1.93 1.92z" opacity="0" data-original="#ffffff" class=""></path><path fill="#ffffff" d="M49.561 22.128h3.358v4.038h-3.358z" opacity="1" data-original="#8f9fff" class=""></path><path fill="#ffffff" d="M57.027 14.46h-9.413V12.21c0-.88.712-1.592 1.592-1.592h6.228c.88 0 1.593.713 1.593 1.592zM47.307 47.172h-18.88l-6.008 3.115 6.007 3.114h18.88a3.114 3.114 0 0 0 0-6.228z" opacity="0" data-original="#ffffff" class=""></path><path fill="#ffffff" d="M28.51 47.172h-.084l-6.007 3.115 6.007 3.114h.083z" opacity="1" data-original="#8f9fff" class=""></path><g fill="#2a44e2"><path d="M35.448 2.084a31.742 31.742 0 0 1 16.536 5.761.5.5 0 0 0 .577-.816 32.739 32.739 0 0 0-17.056-5.943c-.271-.03-.512.195-.528.471a.5.5 0 0 0 .47.527zM65.58 38.215a.502.502 0 0 0-.574.415 31.735 31.735 0 0 1-1.441 5.631.5.5 0 1 0 .941.336 32.683 32.683 0 0 0 1.488-5.809.5.5 0 0 0-.415-.573zM61.51 49.84a.5.5 0 0 0-.687.166c-5.425 8.895-14.908 14.469-25.367 14.91a.5.5 0 0 0 .02 1h.021c10.794-.456 20.58-6.209 26.18-15.388a.5.5 0 0 0-.167-.688zM6.223 17.391a.5.5 0 0 0 .686-.168 32.335 32.335 0 0 1 7.012-8.153.5.5 0 0 0-.638-.77 33.353 33.353 0 0 0-7.229 8.404.5.5 0 0 0 .169.687zM17.141 6.734a29.508 29.508 0 0 1 2.968-1.642.5.5 0 0 0-.432-.902 30.478 30.478 0 0 0-3.07 1.698.5.5 0 1 0 .534.846z" fill="#ffffff" opacity="1" data-original="#2a44e2" class=""></path><circle cx="20.525" cy="18.885" r="1.374" fill="#ffffff" opacity="1" data-original="#2a44e2" class=""></circle><path d="m22.268 45.625.35-1.58c.42-.13.81-.29 1.19-.49l1.35.87c.2.13.46.1.63-.07l1.77-1.78c.16-.16.19-.42.07-.62l-.87-1.36c.2-.38.37-.78.49-1.19l1.57-.34c.23-.05.39-.26.39-.49v-2.51c0-.24-.16-.44-.39-.49l-1.57-.35c-.12-.4-.28-.79-.49-1.18l.87-1.36c.12-.2.09-.46-.07-.63l-1.77-1.77a.5.5 0 0 0-.62-.06l-1.37.86c-.38-.2-.78-.37-1.18-.49l-.35-1.57a.494.494 0 0 0-.49-.39h-2.51c-.23 0-.43.16-.48.39l-.35 1.57c-.41.12-.81.29-1.19.49l-1.36-.86c-.2-.13-.45-.1-.62.06l-1.78 1.77c-.17.17-.19.43-.07.63l.87 1.36c-.2.38-.37.78-.5 1.18l-1.56.35c-.23.05-.4.25-.4.49v2.51c0 .23.17.44.4.49l1.56.34c.13.41.3.81.5 1.19l-.87 1.36c-.12.2-.1.46.07.62l1.78 1.78c.17.17.43.2.62.07l1.36-.87c.37.2.77.36 1.19.49l.35 1.58c.05.23.25.39.48.39h2.51c.24 0 .44-.16.49-.39zm-.56-2.09-.33 1.48h-1.7l-.33-1.48a.514.514 0 0 0-.36-.38 5.75 5.75 0 0 1-1.5-.61.506.506 0 0 0-.53.01l-1.27.81-1.21-1.21.82-1.27c.1-.16.1-.37 0-.53-.28-.47-.49-.96-.62-1.49a.495.495 0 0 0-.38-.37l-1.47-.32v-1.71l1.47-.32c.19-.04.33-.18.38-.37.13-.52.34-1.01.62-1.5.1-.16.1-.36 0-.52l-.82-1.27 1.21-1.21 1.28.81c.15.1.35.1.51.01.48-.27.98-.48 1.51-.62a.5.5 0 0 0 .36-.37l.33-1.47h1.7l.33 1.47a.5.5 0 0 0 .36.37c.51.14 1.01.34 1.51.62.16.1.36.09.51-.01l1.27-.8 1.21 1.2-.81 1.27c-.1.16-.1.36-.01.52.28.5.49.99.62 1.5.05.19.19.33.38.37l1.46.32v1.71l-1.46.32c-.19.04-.33.18-.38.36a6.01 6.01 0 0 1-.62 1.51.51.51 0 0 0 .01.52l.81 1.27-1.21 1.21-1.27-.81a.488.488 0 0 0-.52-.01c-.47.27-.96.47-1.5.61-.18.05-.32.2-.36.38z" fill="#ffffff" opacity="1" data-original="#2a44e2" class=""></path><path d="M20.518 33.035a4.285 4.285 0 1 0 .01 8.57 4.285 4.285 0 0 0-.01-8.57zm0 7.57c-1.8 0-3.28-1.47-3.28-3.28a3.29 3.29 0 0 1 3.28-3.29 3.286 3.286 0 1 1 0 6.57z" fill="#ffffff" opacity="1" data-original="#2a44e2" class=""></path><path d="M64.098 29.865v-13.48c0-1.281-.985-2.326-2.25-2.41-.06-.01-.12-.01-.18-.01h-4.14v-1.76c0-1.15-.94-2.09-2.09-2.09h-5.476c-4.634-3.198-10.236-5.09-16.28-5.09-11.547 0-21.502 6.851-26.073 16.693-1.552.151-2.773 1.448-2.773 3.04V55.17a3.072 3.072 0 0 0 3.069 3.07h10.697a28.554 28.554 0 0 0 15.08 4.303c15.858 0 28.76-12.901 28.76-28.76 0-.52-.037-1.03-.066-1.544l.022-.005a2.52 2.52 0 0 0 1.7-2.37zm-1 0c0 .83-.68 1.5-1.5 1.5h-20.71c-.83 0-1.5-.67-1.5-1.5v-9.8l9.67 3.77v2.33c0 .28.23.5.5.5h3.36c.28 0 .5-.22.5-.5v-2.33l9.68-3.77zm-13.04-7.24h2.36v3.04h-2.36v-3.04zm13.04-6.16v2.53l-9.68 3.77v-.64c0-.27-.22-.5-.5-.5h-3.36c-.27 0-.5.23-.5.5v.64l-9.67-3.77v-2.53c0-.83.67-1.5 1.5-1.5h20.71c.82 0 1.5.67 1.5 1.5zm-6.57-4.26v1.76h-8.41v-1.76c0-.6.49-1.09 1.09-1.09h6.23c.6 0 1.09.49 1.09 1.09zM5.836 55.17V24.757c0-1.14.928-2.07 2.069-2.07h3.363v2.488c0 .27.22.5.5.5h17.52c.27 0 .5-.23.5-.5v-2.487h3.354c1.14 0 2.069.929 2.069 2.07v21.917h-6.783c-.257 0 .144-.116-6.24 3.17a.502.502 0 0 0 0 .89c3.493 1.797 6.448 3.387 6.32 3.17h6.703v1.266c0 1.14-.928 2.07-2.069 2.07H7.905a2.072 2.072 0 0 1-2.07-2.07zm6.432-30.496v-3.14c0-1 .82-1.82 1.83-1.82h2.54c.27 0 .49-.22.5-.5a3.395 3.395 0 0 1 3.39-3.37c1.85 0 3.37 1.51 3.39 3.37 0 .28.22.5.5.5h2.54c1.01 0 1.83.82 1.83 1.82v3.14zm16.74 28.23V51.57H49.58l-.002.004a2.6 2.6 0 0 1-2.27 1.33h-18.3zm-1-.28-4.5-2.34 4.5-2.33zm21.9-2.054h-20.9v-2.896h18.3c1.44 0 2.61 1.17 2.61 2.61 0 .098-.01.187-.01.286zM33.682 61.544a27.573 27.573 0 0 1-13.105-3.303h12.565a3.072 3.072 0 0 0 3.069-3.07v-1.266h11.097c2.03 0 3.61-1.673 3.61-3.62 0-1.99-1.62-3.61-3.61-3.61H36.211V24.757a3.072 3.072 0 0 0-3.069-3.07h-3.354v-.152c0-1.56-1.27-2.82-2.83-2.82h-2.07c-.27-2.18-2.13-3.87-4.36-3.87a4.4 4.4 0 0 0-4.36 3.87h-2.07c-1.56 0-2.83 1.26-2.83 2.82v.153h-2.54C13.23 12.43 22.712 6.025 33.681 6.025c5.409 0 10.45 1.57 14.723 4.257a2.074 2.074 0 0 0-1.287 1.923v1.76h-6.31a2.408 2.408 0 0 0-2.42 2.42v13.48a2.5 2.5 0 0 0 2.5 2.5h20.509c.026.47.044.943.044 1.42 0 15.306-12.453 27.76-27.76 27.76zM1.5 37.288a.5.5 0 0 0-.5.5v8.27a.5.5 0 1 0 1 0v-8.27a.5.5 0 0 0-.5-.5zM1.5 31.363a.5.5 0 0 0-.5.5v2.539a.5.5 0 1 0 1 0v-2.54a.5.5 0 0 0-.5-.5z" fill="#ffffff" opacity="1" data-original="#2a44e2" class=""></path><path d="M55.862 34.323h-6.167a.5.5 0 1 0 0 1h6.167a.5.5 0 1 0 0-1zM46.88 34.323h-1.978a.5.5 0 1 0 0 1h1.977a.5.5 0 1 0 0-1z" fill="#ffffff" opacity="1" data-original="#2a44e2" class=""></path></g></g></svg>