<svg xmlns="http://www.w3.org/2000/svg" xml:space="preserve" width="512" height="512" viewBox="0 0 256 256"><path d="M105.48 58.43c-5.32-16.33.42-22.31 17.4-20 6.78-.6 11.59-2.07 18.69-2.09 18.33.31 9.05 29.82 8 19.78-2.22-16.62-7.16-12.49-21.41-15.08-19.73-3.1-17.16 3.05-22.68 17.39" data-original="#000000"/><path d="M238.42 205.56c-.19-23.66-.65-48-2.29-71.73 2-5 2.05-15-.6-20.44a48.2 48.2 0 0 0-1.47 15.61c3.39 18.15-24.07 7.12-34.39 11.48.43-9.38.15-16.55-13.57-13.29-7.87.42-5.6 7-6.72 13.61-32.4-5.24-66.65-.57-99.59.1.11-5.59 1.34-15.61-8.53-14.42-3.56.86-8.24-.28-10.68 4-2.14 1.92 1.79 10.28-2.57 10.33-18.42-2.81-36.77 4.52-34.9-14.81 2.46-63.21-7-66.45 5.72-66.38 23.53-.71 45.48.22 68.89 1.08C270 65.88 226.09 47.33 236.13 82c-.45-13.85 7.13-26.81-10.87-25.57-56.66-2.26-108.58-.91-163.67.94C46 59.31 21.19 53 19.33 61.54c-1.15 25.7-3.13 52.59.6 78.14-1 17.89-1.63 37.41-2 52.67-1.07 16.92-.83 27.82 16.65 27.24 58 .78 116.38-4.29 174.72-1.11 11.96 0 28.47 4.52 29.12-12.92M181.78 133c.55-3.65 4.8-2 8.09-1.6.45.33 3.78-.43 3.57 1.56-2.92 12.51 10 27.26-7.2 23-3.38-.25-2.9-2.66-2.71-6.63-.16-5.89-2.15-9.9-1.75-16.33m-119.87 0c.56-3.65 4.8-2 8.1-1.6.45.33 3.77-.43 3.56 1.56-2.92 12.51 10 27.26-7.2 23-3.38-.25-2.9-2.66-2.71-6.63-.16-5.89-2.15-9.9-1.75-16.33m171.5 46.21c-1.23 10.53 2.83 32.35-5.09 34-66.28 5.32-129.7-1-195.9 0-12.66 2.29-8.11-17.61-9.11-22.82-.53-19.86-1-34.08-2-52 6.82 9.16 29.89 2.75 38.05 3.41-1.34 7.57-3.74 19.8 9.55 15.82 3.16-.42 7 .4 8.65-3.79 2.62-5.88-.82-14 8.34-11.69 31.85.63 62 4.86 93.29-.16-1.77 10.78-3.26 19.14 12.11 15.41 7.85.53 7.3-9 8.31-15.15 11.38 1.06 28 5 35.65-6.73-1.03 14.54-1.5 29.13-1.85 43.72z" data-original="#000000"/><path d="M157 80.26c5.49-.15.59 22.45.19 32.49.32.49.07.93-.66 1.32-6.15-41.45 12.67-23.07-55.38-29.23-.4 5.27-.62 10.45-.62 15.49h-1.82c0-5.92-.3-11.68-.73-17.26.02-3.81 37.82-3.19 59.02-2.81" data-original="#000000"/><path d="M141.42 112.9c4.79.38 9.66.78 14.84 1.3-6.64 3.07-42.67 3.34-56.87 1.73-1.63-.47-1.22-1.79-1.17-2.79.35-4.34.5-8.61.49-12.8h1.82c0 4.29.16 8.48.48 12.5 13.77-1.58 27.19-.93 40.41.06" data-original="#000000"/></svg>